<mxfile host="Electron" agent="Mozilla/5.0 (X11; Linux x86_64) AppleWebKit/537.36 (KHTML, like Gecko) draw.io/26.0.16 Chrome/132.0.6834.196 Electron/34.2.0 Safari/537.36" version="26.0.16">
  <diagram name="Page-1" id="sNcDbqjw_pYAusYVt_Mp">
    <mxGraphModel dx="1864" dy="495" grid="1" gridSize="10" guides="1" tooltips="1" connect="1" arrows="1" fold="1" page="1" pageScale="1" pageWidth="850" pageHeight="1100" math="0" shadow="0">
      <root>
        <mxCell id="0" />
        <mxCell id="1" parent="0" />
        <mxCell id="_4FONcBpX4_4FI4BpaMM-2" value="" style="edgeStyle=orthogonalEdgeStyle;rounded=0;orthogonalLoop=1;jettySize=auto;html=1;" parent="1" source="Z3fiLp_MwWBO3-BUcPgy-1" target="_4FONcBpX4_4FI4BpaMM-1" edge="1">
          <mxGeometry relative="1" as="geometry" />
        </mxCell>
        <mxCell id="Z3fiLp_MwWBO3-BUcPgy-1" value="Bubble Sort" style="rounded=1;whiteSpace=wrap;html=1;arcSize=50;" parent="1" vertex="1">
          <mxGeometry x="365" y="70" width="120" height="60" as="geometry" />
        </mxCell>
        <mxCell id="_4FONcBpX4_4FI4BpaMM-5" style="edgeStyle=orthogonalEdgeStyle;rounded=0;orthogonalLoop=1;jettySize=auto;html=1;" parent="1" source="_4FONcBpX4_4FI4BpaMM-1" target="_4FONcBpX4_4FI4BpaMM-3" edge="1">
          <mxGeometry relative="1" as="geometry" />
        </mxCell>
        <mxCell id="_4FONcBpX4_4FI4BpaMM-1" value="Enter length of array&amp;nbsp;&amp;nbsp;" style="shape=parallelogram;perimeter=parallelogramPerimeter;whiteSpace=wrap;html=1;fixedSize=1;" parent="1" vertex="1">
          <mxGeometry x="298" y="190" width="255" height="60" as="geometry" />
        </mxCell>
        <mxCell id="_4FONcBpX4_4FI4BpaMM-7" value="" style="edgeStyle=orthogonalEdgeStyle;rounded=0;orthogonalLoop=1;jettySize=auto;html=1;" parent="1" source="_4FONcBpX4_4FI4BpaMM-3" target="_4FONcBpX4_4FI4BpaMM-6" edge="1">
          <mxGeometry relative="1" as="geometry" />
        </mxCell>
        <mxCell id="_4FONcBpX4_4FI4BpaMM-3" value="len" style="shape=parallelogram;perimeter=parallelogramPerimeter;whiteSpace=wrap;html=1;fixedSize=1;" parent="1" vertex="1">
          <mxGeometry x="365" y="300" width="120" height="60" as="geometry" />
        </mxCell>
        <mxCell id="_4FONcBpX4_4FI4BpaMM-9" value="" style="edgeStyle=orthogonalEdgeStyle;rounded=0;orthogonalLoop=1;jettySize=auto;html=1;" parent="1" source="_4FONcBpX4_4FI4BpaMM-6" target="_4FONcBpX4_4FI4BpaMM-8" edge="1">
          <mxGeometry relative="1" as="geometry" />
        </mxCell>
        <mxCell id="_4FONcBpX4_4FI4BpaMM-6" value="&lt;div&gt;&lt;span style=&quot;background-color: transparent; color: light-dark(rgb(0, 0, 0), rgb(255, 255, 255));&quot;&gt;i = 0&amp;nbsp;&lt;/span&gt;&lt;/div&gt;" style="rounded=0;whiteSpace=wrap;html=1;" parent="1" vertex="1">
          <mxGeometry x="365" y="420" width="120" height="60" as="geometry" />
        </mxCell>
        <mxCell id="_4FONcBpX4_4FI4BpaMM-15" style="edgeStyle=orthogonalEdgeStyle;rounded=0;orthogonalLoop=1;jettySize=auto;html=1;" parent="1" source="_4FONcBpX4_4FI4BpaMM-8" target="_4FONcBpX4_4FI4BpaMM-14" edge="1">
          <mxGeometry relative="1" as="geometry" />
        </mxCell>
        <mxCell id="_4FONcBpX4_4FI4BpaMM-24" style="edgeStyle=orthogonalEdgeStyle;rounded=0;orthogonalLoop=1;jettySize=auto;html=1;" parent="1" source="_4FONcBpX4_4FI4BpaMM-8" target="_4FONcBpX4_4FI4BpaMM-23" edge="1">
          <mxGeometry relative="1" as="geometry" />
        </mxCell>
        <mxCell id="_4FONcBpX4_4FI4BpaMM-8" value="len &amp;lt; i&amp;nbsp;" style="rhombus;whiteSpace=wrap;html=1;" parent="1" vertex="1">
          <mxGeometry x="328" y="530" width="195" height="80" as="geometry" />
        </mxCell>
        <mxCell id="_4FONcBpX4_4FI4BpaMM-10" value="True" style="text;html=1;align=center;verticalAlign=middle;whiteSpace=wrap;rounded=0;" parent="1" vertex="1">
          <mxGeometry x="520" y="530" width="60" height="30" as="geometry" />
        </mxCell>
        <mxCell id="_4FONcBpX4_4FI4BpaMM-17" value="" style="edgeStyle=orthogonalEdgeStyle;rounded=0;orthogonalLoop=1;jettySize=auto;html=1;" parent="1" source="_4FONcBpX4_4FI4BpaMM-14" target="_4FONcBpX4_4FI4BpaMM-16" edge="1">
          <mxGeometry relative="1" as="geometry" />
        </mxCell>
        <mxCell id="_4FONcBpX4_4FI4BpaMM-14" value="Enter i number" style="shape=parallelogram;perimeter=parallelogramPerimeter;whiteSpace=wrap;html=1;fixedSize=1;" parent="1" vertex="1">
          <mxGeometry x="530" y="640" width="120" height="60" as="geometry" />
        </mxCell>
        <mxCell id="_4FONcBpX4_4FI4BpaMM-19" value="" style="edgeStyle=orthogonalEdgeStyle;rounded=0;orthogonalLoop=1;jettySize=auto;html=1;" parent="1" source="_4FONcBpX4_4FI4BpaMM-16" target="_4FONcBpX4_4FI4BpaMM-18" edge="1">
          <mxGeometry relative="1" as="geometry" />
        </mxCell>
        <mxCell id="_4FONcBpX4_4FI4BpaMM-16" value="num&amp;nbsp;" style="shape=parallelogram;perimeter=parallelogramPerimeter;whiteSpace=wrap;html=1;fixedSize=1;" parent="1" vertex="1">
          <mxGeometry x="530" y="750" width="120" height="60" as="geometry" />
        </mxCell>
        <mxCell id="_4FONcBpX4_4FI4BpaMM-21" value="" style="edgeStyle=orthogonalEdgeStyle;rounded=0;orthogonalLoop=1;jettySize=auto;html=1;" parent="1" source="_4FONcBpX4_4FI4BpaMM-18" target="_4FONcBpX4_4FI4BpaMM-20" edge="1">
          <mxGeometry relative="1" as="geometry" />
        </mxCell>
        <mxCell id="_4FONcBpX4_4FI4BpaMM-18" value="array[i] = num" style="rounded=0;whiteSpace=wrap;html=1;" parent="1" vertex="1">
          <mxGeometry x="530" y="860" width="120" height="60" as="geometry" />
        </mxCell>
        <mxCell id="_4FONcBpX4_4FI4BpaMM-22" style="edgeStyle=orthogonalEdgeStyle;rounded=0;orthogonalLoop=1;jettySize=auto;html=1;entryX=0.5;entryY=0;entryDx=0;entryDy=0;" parent="1" source="_4FONcBpX4_4FI4BpaMM-20" target="_4FONcBpX4_4FI4BpaMM-8" edge="1">
          <mxGeometry relative="1" as="geometry">
            <Array as="points">
              <mxPoint x="590" y="1060" />
              <mxPoint x="740" y="1060" />
              <mxPoint x="740" y="500" />
              <mxPoint x="426" y="500" />
            </Array>
          </mxGeometry>
        </mxCell>
        <mxCell id="_4FONcBpX4_4FI4BpaMM-20" value="i = i + 1&amp;nbsp;" style="rounded=0;whiteSpace=wrap;html=1;" parent="1" vertex="1">
          <mxGeometry x="530" y="970" width="120" height="60" as="geometry" />
        </mxCell>
        <mxCell id="_4FONcBpX4_4FI4BpaMM-26" value="" style="edgeStyle=orthogonalEdgeStyle;rounded=0;orthogonalLoop=1;jettySize=auto;html=1;" parent="1" source="_4FONcBpX4_4FI4BpaMM-23" target="_4FONcBpX4_4FI4BpaMM-25" edge="1">
          <mxGeometry relative="1" as="geometry" />
        </mxCell>
        <mxCell id="_4FONcBpX4_4FI4BpaMM-23" value="i = 0&amp;nbsp;" style="rounded=0;whiteSpace=wrap;html=1;" parent="1" vertex="1">
          <mxGeometry x="140" y="630" width="120" height="60" as="geometry" />
        </mxCell>
        <mxCell id="_4FONcBpX4_4FI4BpaMM-28" value="" style="edgeStyle=orthogonalEdgeStyle;rounded=0;orthogonalLoop=1;jettySize=auto;html=1;" parent="1" source="_4FONcBpX4_4FI4BpaMM-25" target="_4FONcBpX4_4FI4BpaMM-27" edge="1">
          <mxGeometry relative="1" as="geometry" />
        </mxCell>
        <mxCell id="_4FONcBpX4_4FI4BpaMM-25" value="j = 1&amp;nbsp;" style="rounded=0;whiteSpace=wrap;html=1;" parent="1" vertex="1">
          <mxGeometry x="140" y="740" width="120" height="60" as="geometry" />
        </mxCell>
        <mxCell id="_4FONcBpX4_4FI4BpaMM-30" style="edgeStyle=orthogonalEdgeStyle;rounded=0;orthogonalLoop=1;jettySize=auto;html=1;" parent="1" source="_4FONcBpX4_4FI4BpaMM-27" target="_4FONcBpX4_4FI4BpaMM-29" edge="1">
          <mxGeometry relative="1" as="geometry">
            <Array as="points">
              <mxPoint x="358" y="890" />
            </Array>
          </mxGeometry>
        </mxCell>
        <mxCell id="_4FONcBpX4_4FI4BpaMM-36" style="edgeStyle=orthogonalEdgeStyle;rounded=0;orthogonalLoop=1;jettySize=auto;html=1;entryX=0.5;entryY=0;entryDx=0;entryDy=0;" parent="1" source="_4FONcBpX4_4FI4BpaMM-27" target="_4FONcBpX4_4FI4BpaMM-34" edge="1">
          <mxGeometry relative="1" as="geometry">
            <Array as="points">
              <mxPoint y="890" />
            </Array>
          </mxGeometry>
        </mxCell>
        <mxCell id="_4FONcBpX4_4FI4BpaMM-27" value="len == 1" style="rhombus;whiteSpace=wrap;html=1;" parent="1" vertex="1">
          <mxGeometry x="100" y="850" width="200" height="80" as="geometry" />
        </mxCell>
        <mxCell id="_4FONcBpX4_4FI4BpaMM-29" value="sorted" style="shape=parallelogram;perimeter=parallelogramPerimeter;whiteSpace=wrap;html=1;fixedSize=1;" parent="1" vertex="1">
          <mxGeometry x="300" y="940" width="120" height="60" as="geometry" />
        </mxCell>
        <mxCell id="rlwLAzh0CFcVwWv7xNbV-23" style="edgeStyle=orthogonalEdgeStyle;rounded=0;orthogonalLoop=1;jettySize=auto;html=1;" edge="1" parent="1" source="_4FONcBpX4_4FI4BpaMM-34" target="rlwLAzh0CFcVwWv7xNbV-22">
          <mxGeometry relative="1" as="geometry" />
        </mxCell>
        <mxCell id="rlwLAzh0CFcVwWv7xNbV-26" value="" style="edgeStyle=orthogonalEdgeStyle;rounded=0;orthogonalLoop=1;jettySize=auto;html=1;" edge="1" parent="1" source="_4FONcBpX4_4FI4BpaMM-34" target="rlwLAzh0CFcVwWv7xNbV-25">
          <mxGeometry relative="1" as="geometry" />
        </mxCell>
        <mxCell id="_4FONcBpX4_4FI4BpaMM-34" value="repeat len - 1 times for i&amp;nbsp;" style="shape=hexagon;perimeter=hexagonPerimeter2;whiteSpace=wrap;html=1;fixedSize=1;" parent="1" vertex="1">
          <mxGeometry x="-100" y="1110" width="200" height="80" as="geometry" />
        </mxCell>
        <mxCell id="_4FONcBpX4_4FI4BpaMM-35" value="True" style="text;html=1;align=center;verticalAlign=middle;whiteSpace=wrap;rounded=0;" parent="1" vertex="1">
          <mxGeometry x="305" y="860" width="60" height="30" as="geometry" />
        </mxCell>
        <mxCell id="rlwLAzh0CFcVwWv7xNbV-46" value="" style="edgeStyle=orthogonalEdgeStyle;rounded=0;orthogonalLoop=1;jettySize=auto;html=1;" edge="1" parent="1" source="rlwLAzh0CFcVwWv7xNbV-22" target="rlwLAzh0CFcVwWv7xNbV-45">
          <mxGeometry relative="1" as="geometry" />
        </mxCell>
        <mxCell id="rlwLAzh0CFcVwWv7xNbV-22" value="sorted array" style="shape=parallelogram;perimeter=parallelogramPerimeter;whiteSpace=wrap;html=1;fixedSize=1;" vertex="1" parent="1">
          <mxGeometry x="553" y="1250" width="120" height="60" as="geometry" />
        </mxCell>
        <mxCell id="rlwLAzh0CFcVwWv7xNbV-28" value="" style="edgeStyle=orthogonalEdgeStyle;rounded=0;orthogonalLoop=1;jettySize=auto;html=1;" edge="1" parent="1" source="rlwLAzh0CFcVwWv7xNbV-25">
          <mxGeometry relative="1" as="geometry">
            <mxPoint x="-2.2737367544323206e-13" y="1420" as="targetPoint" />
          </mxGeometry>
        </mxCell>
        <mxCell id="rlwLAzh0CFcVwWv7xNbV-41" style="edgeStyle=orthogonalEdgeStyle;rounded=0;orthogonalLoop=1;jettySize=auto;html=1;exitX=0;exitY=0.5;exitDx=0;exitDy=0;entryX=0;entryY=0.5;entryDx=0;entryDy=0;" edge="1" parent="1" source="rlwLAzh0CFcVwWv7xNbV-25" target="_4FONcBpX4_4FI4BpaMM-34">
          <mxGeometry relative="1" as="geometry">
            <Array as="points">
              <mxPoint x="-210" y="1290" />
              <mxPoint x="-210" y="1150" />
            </Array>
          </mxGeometry>
        </mxCell>
        <mxCell id="rlwLAzh0CFcVwWv7xNbV-25" value="repeat len - i - 1 times for j&amp;nbsp;" style="shape=hexagon;perimeter=hexagonPerimeter2;whiteSpace=wrap;html=1;fixedSize=1;" vertex="1" parent="1">
          <mxGeometry x="-100" y="1250" width="200" height="80" as="geometry" />
        </mxCell>
        <mxCell id="rlwLAzh0CFcVwWv7xNbV-33" value="" style="edgeStyle=orthogonalEdgeStyle;rounded=0;orthogonalLoop=1;jettySize=auto;html=1;" edge="1" parent="1" source="rlwLAzh0CFcVwWv7xNbV-29" target="rlwLAzh0CFcVwWv7xNbV-32">
          <mxGeometry relative="1" as="geometry" />
        </mxCell>
        <mxCell id="rlwLAzh0CFcVwWv7xNbV-29" value="&lt;div style=&quot;color: rgb(225, 228, 232); background-color: rgb(36, 41, 46); font-family: &amp;quot;Droid Sans Mono&amp;quot;, &amp;quot;monospace&amp;quot;, monospace; font-size: 14px; line-height: 19px; white-space: pre;&quot;&gt;&lt;div&gt;temp &lt;span style=&quot;color: #f97583;&quot;&gt;=&lt;/span&gt; array[j]&lt;/div&gt;&lt;div&gt;array[j] &lt;span style=&quot;color: #f97583;&quot;&gt;=&lt;/span&gt; array[j &lt;span style=&quot;color: #f97583;&quot;&gt;+&lt;/span&gt; &lt;span style=&quot;color: #79b8ff;&quot;&gt;1&lt;/span&gt;]&lt;/div&gt;&lt;div&gt; array[j &lt;span style=&quot;color: #f97583;&quot;&gt;+&lt;/span&gt; &lt;span style=&quot;color: #79b8ff;&quot;&gt;1&lt;/span&gt;] &lt;span style=&quot;color: #f97583;&quot;&gt;=&lt;/span&gt; temp&lt;/div&gt;&lt;/div&gt;" style="rounded=0;whiteSpace=wrap;html=1;" vertex="1" parent="1">
          <mxGeometry x="88" y="1550" width="240" height="60" as="geometry" />
        </mxCell>
        <mxCell id="rlwLAzh0CFcVwWv7xNbV-31" style="edgeStyle=orthogonalEdgeStyle;rounded=0;orthogonalLoop=1;jettySize=auto;html=1;" edge="1" parent="1" source="rlwLAzh0CFcVwWv7xNbV-30" target="rlwLAzh0CFcVwWv7xNbV-29">
          <mxGeometry relative="1" as="geometry">
            <Array as="points">
              <mxPoint x="208" y="1460" />
            </Array>
          </mxGeometry>
        </mxCell>
        <mxCell id="rlwLAzh0CFcVwWv7xNbV-42" style="edgeStyle=orthogonalEdgeStyle;rounded=0;orthogonalLoop=1;jettySize=auto;html=1;entryX=0.5;entryY=0;entryDx=0;entryDy=0;" edge="1" parent="1" source="rlwLAzh0CFcVwWv7xNbV-30" target="rlwLAzh0CFcVwWv7xNbV-32">
          <mxGeometry relative="1" as="geometry">
            <Array as="points">
              <mxPoint y="1640" />
              <mxPoint x="208" y="1640" />
            </Array>
          </mxGeometry>
        </mxCell>
        <mxCell id="rlwLAzh0CFcVwWv7xNbV-30" value="&lt;div style=&quot;color: #e1e4e8;background-color: #24292e;font-family: &#39;Droid Sans Mono&#39;, &#39;monospace&#39;, monospace;font-weight: normal;font-size: 14px;line-height: 19px;white-space: pre;&quot;&gt;&lt;div&gt;&lt;span style=&quot;color: #e1e4e8;&quot;&gt;array&lt;/span&gt;&lt;span style=&quot;color: #e1e4e8;&quot;&gt;[&lt;/span&gt;&lt;span style=&quot;color: #e1e4e8;&quot;&gt;j&lt;/span&gt;&lt;span style=&quot;color: #e1e4e8;&quot;&gt;] &lt;/span&gt;&lt;span style=&quot;color: #f97583;&quot;&gt;&amp;gt;&lt;/span&gt;&lt;span style=&quot;color: #e1e4e8;&quot;&gt; &lt;/span&gt;&lt;span style=&quot;color: #e1e4e8;&quot;&gt;array&lt;/span&gt;&lt;span style=&quot;color: #e1e4e8;&quot;&gt;[&lt;/span&gt;&lt;span style=&quot;color: #e1e4e8;&quot;&gt;j&lt;/span&gt;&lt;span style=&quot;color: #e1e4e8;&quot;&gt; &lt;/span&gt;&lt;span style=&quot;color: #f97583;&quot;&gt;+&lt;/span&gt;&lt;span style=&quot;color: #e1e4e8;&quot;&gt; &lt;/span&gt;&lt;span style=&quot;color: #79b8ff;&quot;&gt;1&lt;/span&gt;&lt;span style=&quot;color: #e1e4e8;&quot;&gt;]&lt;/span&gt;&lt;/div&gt;&lt;/div&gt;" style="rhombus;whiteSpace=wrap;html=1;" vertex="1" parent="1">
          <mxGeometry x="-140" y="1420" width="280" height="80" as="geometry" />
        </mxCell>
        <mxCell id="rlwLAzh0CFcVwWv7xNbV-40" style="edgeStyle=orthogonalEdgeStyle;rounded=0;orthogonalLoop=1;jettySize=auto;html=1;exitX=1;exitY=0.5;exitDx=0;exitDy=0;entryX=1;entryY=0.5;entryDx=0;entryDy=0;" edge="1" parent="1" source="rlwLAzh0CFcVwWv7xNbV-32" target="rlwLAzh0CFcVwWv7xNbV-25">
          <mxGeometry relative="1" as="geometry">
            <Array as="points">
              <mxPoint x="220" y="1700" />
              <mxPoint x="220" y="1770" />
              <mxPoint x="410" y="1770" />
              <mxPoint x="410" y="1290" />
            </Array>
          </mxGeometry>
        </mxCell>
        <mxCell id="rlwLAzh0CFcVwWv7xNbV-32" value="i = i + 1&lt;div&gt;j = j + 1&lt;/div&gt;" style="rounded=0;whiteSpace=wrap;html=1;" vertex="1" parent="1">
          <mxGeometry x="148" y="1670" width="120" height="60" as="geometry" />
        </mxCell>
        <mxCell id="rlwLAzh0CFcVwWv7xNbV-43" value="True" style="text;html=1;align=center;verticalAlign=middle;whiteSpace=wrap;rounded=0;" vertex="1" parent="1">
          <mxGeometry x="140" y="1420" width="60" height="30" as="geometry" />
        </mxCell>
        <mxCell id="rlwLAzh0CFcVwWv7xNbV-45" value="END" style="rounded=1;whiteSpace=wrap;html=1;arcSize=50;" vertex="1" parent="1">
          <mxGeometry x="553" y="1350" width="120" height="60" as="geometry" />
        </mxCell>
      </root>
    </mxGraphModel>
  </diagram>
</mxfile>
